<svg height="512pt" viewBox="0 -43 512.03733 512" width="512pt" xmlns="http://www.w3.org/2000/svg"><path d="m320.019531 117.367188v32h-319.9999998v-10.664063c0-17.707031 14.2968748-32 31.9999998-32h277.335938c5.757812 0 10.664062 4.691406 10.664062 10.664063zm0 0" fill="#607d8b"/><path d="m502.675781 128.546875-119.167969-119.167969c-12.476562-12.480468-32.765624-12.480468-45.246093 0l-143.125 143.125c-2.199219 2.199219-3.328125 5.226563-3.117188 8.320313.214844 3.09375 1.773438 5.910156 4.246094 7.765625l170.667969 128c1.898437 1.429687 4.160156 2.132812 6.398437 2.132812 2.730469 0 5.484375-1.046875 7.554688-3.113281l121.789062-121.792969c12.460938-12.480468 12.460938-32.789062 0-45.269531zm0 0" fill="#2196f3"/><path d="m442.261719 68.089844-162.988281 162.773437-5.332032 5.332031-36.90625-37.121093-8.320312-8.320313 168.105468-168.105468zm0 0" fill="#455a64"/><path d="m384.019531 202.703125v170.664063c0 29.441406-23.890625 53.335937-53.332031 53.335937h-298.667969c-17.703125 0-31.9999998-14.296875-31.9999998-32v-245.335937h330.6679688c29.441406 0 53.332031 23.894531 53.332031 53.335937zm0 0" fill="#607d8b"/><path d="m373.332031 298.722656c-2.730469 0-5.460937-1.046875-7.550781-3.113281-4.160156-4.160156-4.160156-10.925781 0-15.085937l121.792969-121.789063c4.160156-4.160156 4.160156-10.921875 0-15.082031l-119.167969-119.167969c-4.160156-4.160156-10.921875-4.160156-15.082031 0l-143.105469 143.101563c-4.160156 4.160156-10.921875 4.160156-15.082031 0-4.160157-4.160157-4.160157-10.921876 0-15.082032l143.125-143.125c12.480469-12.457031 32.769531-12.457031 45.246093 0l119.167969 119.167969c12.480469 12.480469 12.480469 32.769531 0 45.246094l-121.789062 121.792969c-2.09375 2.089843-4.824219 3.136718-7.554688 3.136718zm0 0"/><path d="m330.667969 426.722656h-298.667969c-17.644531 0-32-14.355468-32-32v-256c0-17.644531 14.355469-32 32-32h213.332031c5.890625 0 10.667969 4.777344 10.667969 10.667969 0 5.886719-4.777344 10.664063-10.667969 10.664063h-213.332031c-5.886719 0-10.667969 4.800781-10.667969 10.667968 0 5.867188 4.78125 10.667969 10.667969 10.667969h298.667969c29.394531 0 53.332031 23.914063 53.332031 53.332031v170.667969c0 29.417969-23.9375 53.332031-53.332031 53.332031zm-309.335938-257.835937v225.835937c0 5.867188 4.78125 10.667969 10.667969 10.667969h298.667969c17.640625 0 32-14.359375 32-32v-170.667969c0-17.644531-14.359375-32-32-32h-298.667969c-3.734375 0-7.339844-.640625-10.667969-1.835937zm0 0"/></svg>
